# xmcd
#
# Track frame offsets: 
#        150
#        13962
#        30681
#        43068
#        55806
#        74873
#        86982
#        102266
#        117661
#        128720
#        146920
#        161127
#
# Disc length: 2347 seconds
#
# Revision: 0
# Processed by: cddbd v1.5PL3 Copyright (c) Steve Scherf et al.
# Submitted via: ExactAudioCopy v0.90b4
#
DISCID=bd09290c
DTITLE=Kenny Rogers - Simply The Best [CD1]
DYEAR=2004
DGENRE=Country
TTITLE0=Ruby, Don't Take Your Love To Town
TTITLE1=Tulsa Turnaround
TTITLE2=Elvira
TTITLE3=Reuben James
TTITLE4=The King Of Oak Street
TTITLE5=Me and Bobby McGee
TTITLE6=Just Dropped In
TTITLE7=For The Good Times
TTITLE8=She Even Woke Me Up To Say Goodbye
TTITLE9=Somethings Burning
TTITLE10=But You Know I Love You
TTITLE11=Heed The Call
EXTD=
EXTT0=
EXTT1=
EXTT2=
EXTT3=
EXTT4=
EXTT5=
EXTT6=
EXTT7=
EXTT8=
EXTT9=
EXTT10=
EXTT11=
PLAYORDER=
